<?xml version="1.0" encoding="iso-8859-1"?>
<!-- Generator: Adobe Illustrator 18.0.0, SVG Export Plug-In . SVG Version: 6.00 Build 0)  -->
<!DOCTYPE svg PUBLIC "-//W3C//DTD SVG 1.1//EN" "http://www.w3.org/Graphics/SVG/1.1/DTD/svg11.dtd">
<svg version="1.1" id="Capa_1" xmlns="http://www.w3.org/2000/svg" xmlns:xlink="http://www.w3.org/1999/xlink" x="0px" y="0px"
	 viewBox="0 0 493.258 493.258" style="enable-background:new 0 0 493.258 493.258;" xml:space="preserve">
<g>
	<path d="M408.389,91.173c14.193-26.707,6.85-60.285-17.404-78.609c-13.234-9.999-29.569-14.25-45.993-11.957
		c-16.425,2.287-30.977,10.835-40.975,24.067c-9.998,13.233-14.244,29.566-11.958,45.991c2.287,16.426,10.833,30.978,24.066,40.974
		c10.698,8.084,23.724,12.458,37.07,12.529l0.945,12.189l-23.61,1.881c-4.191-8.378-10.295-15.736-17.801-21.407
		c-13.028-9.844-29.109-14.02-45.277-11.773c-16.17,2.252-30.496,10.666-40.338,23.693L128.338,259.49
		c-9.842,13.026-14.022,29.105-11.769,45.276c2.253,16.169,10.668,30.495,23.696,40.338c10.708,8.091,23.726,12.326,36.896,12.326
		c5.787-0.001,11.602-0.826,17.263-2.495l85.889-3.148l3.525,96.008c0.743,20.314,17.24,36.226,37.557,36.226
		c0.464,0,0.934-0.008,1.402-0.025c20.72-0.763,36.96-18.239,36.199-38.958l-4.895-133.46c0-0.042-0.001-0.084-0.003-0.126
		c-0.186-5.071-1.362-9.958-3.495-14.523c-6.351-13.609-20.342-22.266-35.47-21.684c-0.025,0.001-0.05,0.002-0.076,0.003
		l-46.707,1.713l56.301-74.518c1.492-1.975,2.878-4.071,4.14-6.251l58.565-4.647c15.755-1.324,27.566-15.208,26.329-30.941
		L408.389,91.173z M321.25,104.858c-11.421-8.629-18.797-21.188-20.771-35.365c-1.974-14.177,1.691-28.273,10.321-39.694
		c8.629-11.421,21.189-18.799,35.365-20.773c14.18-1.968,28.275,1.691,39.697,10.32c15.632,11.811,23.121,30.963,20.816,49.504
		c-1.359-14.682-13.891-26.146-28.648-26.146c-0.808,0-1.628,0.034-2.436,0.101c-7.668,0.643-14.625,4.233-19.592,10.11
		c-4.966,5.876-7.346,13.335-6.704,20.975l3.239,41.77C341.266,115.451,330.294,111.69,321.25,104.858z M315.438,283.74
		c0.022-0.001,0.044-0.002,0.067-0.003c11.673-0.392,22.488,6.269,27.397,16.788c1.638,3.508,2.546,7.265,2.699,11.167
		c0,0.041,0.001,0.082,0.003,0.123l4.898,133.535c0.404,11.024-5.41,20.862-14.294,26.126V355.589c0-2.348-1.903-4.25-4.25-4.25
		s-4.25,1.902-4.25,4.25v119.237c-1.69,0.374-3.433,0.608-5.223,0.675c-16.193,0.606-29.564-11.933-30.153-28.018l-3.681-100.255
		c-0.084-2.292-1.969-4.094-4.244-4.094c-0.053,0-0.105,0.001-0.159,0.003l-100.251,3.674c-16.23,0.593-29.566-11.936-30.158-28.022
		c-0.285-7.769,2.472-15.184,7.765-20.878c5.292-5.695,12.486-8.988,20.257-9.273L315.438,283.74z M318.071,197.042l-60.676,80.32
		l-75.845,2.781c-10.04,0.368-19.335,4.623-26.172,11.981c-6.838,7.358-10.401,16.938-10.032,26.977
		c0.388,10.555,5.032,19.925,12.25,26.494c-4.245-1.906-8.338-4.351-12.207-7.273c-11.216-8.475-18.461-20.809-20.401-34.73
		c-1.939-13.922,1.659-27.765,10.133-38.979l98.778-130.738c8.474-11.216,20.807-18.46,34.728-20.398
		c13.923-1.937,27.766,1.661,38.981,10.136c5.529,4.178,10.165,9.424,13.651,15.365l-60.472,4.817
		c-15.825,1.331-27.621,15.29-26.295,31.117c1.243,14.802,13.836,26.396,28.67,26.396c0.81,0,1.631-0.034,2.422-0.102
		L318.071,197.042C318.003,197.133,318.139,196.952,318.071,197.042z M386.665,183.073l-121.774,9.663
		c-0.574,0.049-1.156,0.073-1.729,0.073c-10.451,0-19.324-8.174-20.2-18.606c-0.935-11.158,7.381-20.999,18.518-21.936l97.564-7.773
		c2.336-0.186,4.081-2.229,3.9-4.564l-5.174-66.724c-0.454-5.405,1.224-10.663,4.725-14.805c3.5-4.143,8.404-6.673,13.81-7.126
		c0.573-0.048,1.154-0.072,1.726-0.072c10.458,0,19.333,8.173,20.202,18.575l6.979,91.482
		C406.084,172.355,397.756,182.14,386.665,183.073z"/>
	<path d="M246.735,363.381H95.219c-9.672,0-17.54,7.869-17.54,17.541v94.795c0,9.672,7.869,17.541,17.54,17.541h151.516
		c9.672,0,17.541-7.869,17.541-17.541v-94.795C264.276,371.25,256.407,363.381,246.735,363.381z M95.219,371.881h151.516
		c4.985,0,9.041,4.056,9.041,9.041v27.414H147.467c-2.347,0-4.25,1.902-4.25,4.25c0,2.348,1.903,4.25,4.25,4.25h108.309v46.998
		H86.179v-82.912C86.179,375.937,90.234,371.881,95.219,371.881z M246.735,484.758H95.219c-4.985,0-9.04-4.056-9.04-9.041v-3.383
		h169.597v3.383C255.776,480.703,251.72,484.758,246.735,484.758z"/>
	<path d="M210.046,203.721c-1.864-1.425-4.532-1.071-5.957,0.794l-38.998,50.997c-1.426,1.865-1.07,4.532,0.795,5.958
		c0.77,0.589,1.678,0.874,2.579,0.874c1.278,0,2.542-0.574,3.379-1.668l38.998-50.997
		C212.266,207.814,211.91,205.147,210.046,203.721z"/>
</g>
<g>
</g>
<g>
</g>
<g>
</g>
<g>
</g>
<g>
</g>
<g>
</g>
<g>
</g>
<g>
</g>
<g>
</g>
<g>
</g>
<g>
</g>
<g>
</g>
<g>
</g>
<g>
</g>
<g>
</g>
</svg>
