<?xml version="1.0" encoding="iso-8859-1"?>
<!-- Generator: Adobe Illustrator 19.0.0, SVG Export Plug-In . SVG Version: 6.00 Build 0)  -->
<svg version="1.1" id="Capa_1" xmlns="http://www.w3.org/2000/svg" xmlns:xlink="http://www.w3.org/1999/xlink" x="0px" y="0px"
	 viewBox="0 0 512 512" style="enable-background:new 0 0 512 512;" xml:space="preserve">
<polygon style="fill:#2E9DE3;" points="256,177.528 323.959,216.764 323.959,295.236 256,334.472 188.041,295.236 188.041,216.764 
	"/>
<path style="fill:#4DBAF6;" d="M223.649,274.677L256,293.355l32.351-18.678v-37.354L256,218.645l-32.351,18.678V274.677z"/>
<path d="M202.165,77.377c5.523,0,10-4.478,10-10s-4.477-10-10-10h-0.01c-5.523,0-9.995,4.478-9.995,10
	S196.642,77.377,202.165,77.377z"/>
<path d="M309.855,434.623h-0.01c-5.523,0-9.995,4.478-9.995,10s4.482,10,10.005,10c5.522,0,10-4.478,10-10
	S315.378,434.623,309.855,434.623z"/>
<path d="M474.042,370.34l-17.611-10.167l9.892-2.651c5.334-1.43,8.5-6.913,7.071-12.247c-1.429-5.336-6.912-8.501-12.248-7.071
	l-29.21,7.827L398.628,326.8l50.235-13.461c5.334-1.43,8.5-6.913,7.071-12.247c-1.43-5.335-6.912-8.502-12.248-7.071l-69.554,18.637
	l-24.267-14.01l21.567-5.779c5.334-1.43,8.5-6.913,7.071-12.247s-6.914-8.504-12.248-7.071l-32.298,8.654v-52.408l32.298,8.654
	c0.867,0.232,1.738,0.344,2.595,0.344c4.415,0,8.456-2.947,9.653-7.415c1.43-5.334-1.736-10.817-7.071-12.247l-21.567-5.779
	l24.267-14.01l69.554,18.637c0.867,0.232,1.738,0.344,2.595,0.344c4.415,0,8.456-2.947,9.653-7.415
	c1.43-5.334-1.736-10.817-7.071-12.247L398.628,185.2l33.309-19.231l29.21,7.827c0.867,0.232,1.738,0.344,2.595,0.344
	c4.415,0,8.456-2.947,9.653-7.415c1.43-5.334-1.736-10.817-7.071-12.247l-9.892-2.651l17.611-10.167
	c4.783-2.762,6.422-8.877,3.66-13.66c-2.761-4.782-8.877-6.423-13.66-3.66l-17.611,10.167l2.65-9.891
	c1.43-5.334-1.736-10.817-7.071-12.247c-5.336-1.431-10.818,1.736-12.248,7.071l-7.827,29.209l-33.308,19.23l13.46-50.234
	c1.43-5.334-1.736-10.817-7.071-12.247c-5.336-1.432-10.818,1.736-12.248,7.071l-18.636,69.552l-24.268,14.011l5.779-21.567
	c1.43-5.334-1.736-10.817-7.071-12.247c-5.334-1.433-10.818,1.736-12.248,7.071l-8.654,32.298l-45.386-26.203l23.644-23.644
	c3.905-3.905,3.905-10.237,0-14.143c-3.905-3.904-10.237-3.904-14.142,0L266,153.385v-28.02l50.917-50.917
	c3.905-3.905,3.905-10.237,0-14.143c-3.905-3.904-10.237-3.904-14.143,0L266,97.08V58.619l21.383-21.382
	c3.905-3.905,3.906-10.237,0-14.143c-3.905-3.903-10.237-3.904-14.142,0L266,30.335V10c0-5.522-4.477-10-10-10
	c-5.523,0-10,4.478-10,10v20.335l-7.241-7.241c-3.905-3.904-10.237-3.904-14.142,0c-3.905,3.905-3.905,10.237,0,14.143L246,58.619
	v38.462l-13.179-13.178c-3.905-3.904-10.237-3.904-14.142,0c-3.905,3.905-3.905,10.237,0,14.143l27.32,27.32v28.021l-15.788-15.788
	c-3.905-3.903-10.237-3.904-14.142,0c-3.905,3.905-3.906,10.237,0,14.143l23.644,23.644l-45.386,26.203l-8.654-32.298
	c-1.43-5.335-6.913-8.503-12.248-7.071c-5.334,1.43-8.5,6.913-7.071,12.247l5.779,21.567l-24.268-14.011L129.23,112.47
	c-1.43-5.335-6.911-8.502-12.248-7.071c-5.334,1.43-8.5,6.913-7.071,12.247l13.46,50.234l-33.308-19.23l-7.827-29.209
	c-1.429-5.336-6.914-8.503-12.248-7.071c-5.334,1.43-8.5,6.913-7.071,12.247l2.65,9.891L47.958,124.34
	c-4.783-2.762-10.899-1.123-13.66,3.66c-2.762,4.783-1.123,10.898,3.66,13.66l17.611,10.167l-9.892,2.651
	c-5.334,1.43-8.5,6.913-7.071,12.247c1.197,4.469,5.237,7.415,9.653,7.415c0.856-0.001,1.728-0.111,2.595-0.344l29.21-7.827
	l33.309,19.231l-50.235,13.461c-5.334,1.43-8.5,6.913-7.071,12.247c1.197,4.468,5.237,7.415,9.653,7.415
	c0.856-0.001,1.728-0.111,2.595-0.344l69.554-18.637l24.267,14.01l-21.567,5.779c-5.334,1.43-8.5,6.913-7.071,12.247
	c1.197,4.468,5.237,7.415,9.653,7.415c0.856-0.001,1.728-0.111,2.595-0.344l32.298-8.654v52.408l-32.298-8.654
	c-5.335-1.43-10.819,1.736-12.248,7.071c-1.43,5.334,1.736,10.817,7.071,12.247l21.567,5.779l-24.267,14.01l-69.554-18.637
	c-5.335-1.432-10.818,1.736-12.248,7.071c-1.43,5.334,1.736,10.817,7.071,12.247l50.235,13.461l-33.31,19.232l-29.21-7.827
	c-5.334-1.432-10.818,1.736-12.248,7.071c-1.43,5.334,1.736,10.817,7.071,12.247l9.892,2.651l-17.61,10.168
	c-4.783,2.762-6.422,8.877-3.66,13.66c1.852,3.208,5.213,5.002,8.669,5.002c1.696,0,3.416-0.433,4.991-1.342l17.611-10.167
	l-2.65,9.891c-1.43,5.334,1.736,10.817,7.071,12.247c0.867,0.232,1.738,0.344,2.595,0.344c4.415-0.001,8.456-2.947,9.653-7.415
	l7.827-29.209l33.308-19.23l-13.46,50.234c-1.43,5.334,1.736,10.817,7.071,12.247c0.867,0.232,1.738,0.344,2.595,0.344
	c4.415-0.001,8.456-2.947,9.653-7.415l18.636-69.552l24.268-14.011l-5.779,21.567c-1.43,5.334,1.736,10.817,7.071,12.247
	c0.867,0.232,1.738,0.344,2.595,0.344c4.415-0.001,8.456-2.947,9.653-7.415l8.654-32.298l45.386,26.203L216.07,360.26
	c-3.905,3.905-3.905,10.237,0,14.143c3.905,3.904,10.237,3.904,14.142,0L246,358.615v28.02l-50.917,50.917
	c-3.905,3.905-3.905,10.237,0,14.143c1.953,1.952,4.512,2.929,7.071,2.929s5.119-0.977,7.071-2.929L246,414.92v38.461
	l-21.383,21.382c-3.905,3.905-3.906,10.237,0,14.143c3.906,3.904,10.238,3.905,14.142,0l7.241-7.241V502c0,5.522,4.477,10,10,10
	c5.523,0,10-4.478,10-10v-20.335l7.241,7.241c1.953,1.952,4.512,2.929,7.071,2.929s5.119-0.977,7.071-2.929
	c3.905-3.905,3.905-10.237,0-14.143L266,453.381V414.92l12.489,12.489c3.906,3.904,10.238,3.905,14.142,0
	c3.905-3.905,3.906-10.237,0-14.143L266,386.635v-28.02l15.788,15.788c1.953,1.952,4.512,2.929,7.071,2.929
	c2.559,0,5.119-0.977,7.071-2.929c3.905-3.905,3.906-10.237,0-14.143l-23.644-23.644l45.386-26.203l8.654,32.298
	c1.197,4.468,5.237,7.415,9.653,7.415c0.856,0,1.728-0.111,2.595-0.344c5.334-1.43,8.5-6.913,7.071-12.247l-5.779-21.567
	l24.268,14.011l18.636,69.552c1.197,4.468,5.237,7.415,9.653,7.415c0.856,0,1.728-0.111,2.595-0.344
	c5.334-1.43,8.5-6.913,7.071-12.247l-13.46-50.234l33.308,19.23l7.827,29.209c1.197,4.469,5.237,7.415,9.653,7.415
	c0.856,0,1.728-0.111,2.595-0.344c5.334-1.43,8.5-6.913,7.071-12.247l-2.65-9.891l17.611,10.167
	c1.575,0.909,3.294,1.342,4.991,1.342c3.456,0,6.817-1.794,8.669-5.002C480.464,379.217,478.825,373.102,474.042,370.34z
	 M313.958,289.463L256,322.925l-57.958-33.462v-66.926L256,189.075l57.958,33.462V289.463z"/>
<path d="M251,209.985l-32.351,18.678c-3.094,1.786-5,5.088-5,8.66v37.354c0,3.572,1.906,6.874,5,8.66L251,302.015
	c1.547,0.894,3.273,1.34,5,1.34s3.453-0.446,5-1.34l32.351-18.678c3.094-1.786,5-5.088,5-8.66v-37.354c0-3.572-1.906-6.874-5-8.66
	L261,209.985C257.906,208.198,254.094,208.198,251,209.985z M278.351,243.097v25.807L256,281.808l-22.351-12.904v-25.807
	L256,230.192L278.351,243.097z"/>
<g>
</g>
<g>
</g>
<g>
</g>
<g>
</g>
<g>
</g>
<g>
</g>
<g>
</g>
<g>
</g>
<g>
</g>
<g>
</g>
<g>
</g>
<g>
</g>
<g>
</g>
<g>
</g>
<g>
</g>
</svg>
